<svg width="18" height="18" viewBox="0 0 18 18" fill="none" xmlns="http://www.w3.org/2000/svg">
<g clip-path="url(#clip0_366_1597)">
<path d="M4.27406 5.03236C3.98156 5.32486 3.98156 5.79736 4.27406 6.08986L7.18406 8.99986L4.27406 11.9099C3.98156 12.2024 3.98156 12.6749 4.27406 12.9674C4.56656 13.2599 5.03906 13.2599 5.33156 12.9674L8.77406 9.52486C9.06656 9.23236 9.06656 8.75986 8.77406 8.46736L5.33906 5.03236C5.04656 4.73986 4.56656 4.73986 4.27406 5.03236Z" fill="#595959"/>
<path d="M9.21742 5.03233C8.92492 5.32483 8.92492 5.79733 9.21742 6.08983L12.1274 8.99983L9.21742 11.9098C8.92492 12.2023 8.92492 12.6748 9.21742 12.9673C9.50992 13.2598 9.98242 13.2598 10.2749 12.9673L13.7174 9.52483C14.0099 9.23233 14.0099 8.75983 13.7174 8.46733L10.2749 5.02483C9.98992 4.73983 9.50992 4.73983 9.21742 5.03233Z" fill="#595959"/>
</g>
<defs>
<clipPath id="clip0_366_1597">
<rect width="18" height="18" fill="white"/>
</clipPath>
</defs>
</svg>
