<svg width="135" height="107" viewBox="0 0 135 107" fill="none" xmlns="http://www.w3.org/2000/svg">
<g clip-path="url(#clip0_366_843)">
<path d="M57.2431 102.8C57.7372 102.831 58.0103 102.219 57.6365 101.863L57.5993 101.716C57.6042 101.704 57.6091 101.692 57.614 101.681C58.1137 100.494 59.8071 100.502 60.3026 101.691C60.7423 102.745 61.3021 103.802 61.44 104.917C61.5018 105.409 61.474 105.91 61.3643 106.393C62.3946 104.152 62.9368 101.705 62.9368 99.2435C62.9368 98.6251 62.9028 98.0067 62.8333 97.3899C62.7762 96.8853 62.6974 96.3839 62.5954 95.887C62.044 93.2011 60.8499 90.643 59.1275 88.5063C58.2995 88.0556 57.6091 87.351 57.192 86.5065C57.0422 86.2019 56.9248 85.8743 56.8691 85.5405C56.9634 85.5528 57.2244 84.1237 57.1534 84.036C57.2847 83.8376 57.5197 83.739 57.6631 83.5453C58.3764 82.5823 59.3591 82.7505 59.8721 84.0591C60.968 84.6099 60.9786 85.5234 60.3062 86.4019C59.8784 86.9609 59.8196 87.7172 59.4442 88.3155C59.4828 88.3648 59.523 88.4125 59.5616 88.4617C60.2698 89.3662 60.8823 90.3385 61.3986 91.3598C61.2527 90.2247 61.4681 88.8571 61.8354 87.9756C62.2535 86.9712 63.0372 86.1252 63.7273 85.2569C64.5563 84.2139 66.2561 84.6691 66.4021 85.9913C66.4035 86.0041 66.4049 86.0169 66.4063 86.0297C66.3038 86.0872 66.2033 86.1484 66.1053 86.213C65.5457 86.5815 65.7391 87.4453 66.4021 87.5472L66.4171 87.5495C66.38 87.9171 66.3167 88.2817 66.224 88.6401C67.1093 92.0497 65.198 93.2915 62.4688 93.3473C62.4085 93.378 62.3498 93.4088 62.2896 93.438C62.5661 94.2133 62.787 95.0086 62.9507 95.8147C63.0975 96.5269 63.1994 97.2468 63.2566 97.9698C63.3276 98.882 63.3215 99.7989 63.2442 100.71L63.2489 100.677C63.445 99.6743 63.9919 98.7374 64.7859 98.0883C65.9687 97.1207 67.6398 96.7644 68.9158 95.9866C69.53 95.6122 70.3172 96.0961 70.21 96.8052L70.2047 96.8392C70.0147 96.9161 69.8294 97.0053 69.6502 97.1053C69.5477 97.1629 69.4473 97.2241 69.3492 97.2887C68.7896 97.6572 68.983 98.5209 69.646 98.6228L69.661 98.6251C69.6718 98.6267 69.6811 98.6282 69.6919 98.6298C69.366 99.4004 68.9118 100.116 68.3434 100.733C67.7898 103.709 65.4122 103.991 62.8689 103.125H62.8673C62.5893 104.331 62.183 105.509 61.6609 106.632H57.3511C57.3356 106.584 57.3217 106.535 57.3078 106.487C57.7064 106.512 58.108 106.489 58.5004 106.417C58.1806 106.026 57.8609 105.632 57.5411 105.241C57.5334 105.234 57.5272 105.226 57.521 105.218C57.3588 105.018 57.1951 104.82 57.0329 104.62L57.0328 104.62C57.0226 104.006 57.0965 103.394 57.243 102.8L57.2431 102.8Z" fill="#F2F2F2"/>
<path d="M0 106.717C0 106.874 0.126764 107 0.284619 107H96.7368C96.8947 107 97.0214 106.874 97.0214 106.717C97.0214 106.559 96.8947 106.433 96.7368 106.433H0.284619C0.126764 106.433 0 106.559 0 106.717Z" fill="#CCCCCC"/>
<path d="M130.283 106.937H80.8831C78.282 106.937 76.1658 104.829 76.1658 102.239V4.69774C76.1658 2.10745 78.282 0 80.8831 0L130.283 0C132.884 0 135 2.10745 135 4.69774V102.239C135 104.829 132.884 106.937 130.283 106.937ZM80.8831 0.476333C78.542 0.476333 76.6441 2.36627 76.6441 4.69763V102.239C76.6441 104.571 78.542 106.46 80.8832 106.46H130.283C132.624 106.46 134.522 104.571 134.522 102.239V35.8929C134.522 16.3329 118.599 0.476333 98.9569 0.476333L80.8831 0.476333Z" fill="#E6E6E6"/>
<path d="M90.197 48.1381C93.367 48.1381 95.9369 45.5789 95.9369 42.4221C95.9369 39.2652 93.367 36.7061 90.197 36.7061C87.0269 36.7061 84.457 39.2652 84.457 42.4221C84.457 45.5789 87.0269 48.1381 90.197 48.1381Z" fill="#E6E6E6"/>
<path d="M120.969 48.1381C124.139 48.1381 126.709 45.5789 126.709 42.4221C126.709 39.2652 124.139 36.7061 120.969 36.7061C117.799 36.7061 115.229 39.2652 115.229 42.4221C115.229 45.5789 117.799 48.1381 120.969 48.1381Z" fill="#E6E6E6"/>
<path d="M105.583 48.1381C108.753 48.1381 111.323 45.5789 111.323 42.4221C111.323 39.2652 108.753 36.7061 105.583 36.7061C102.413 36.7061 99.8428 39.2652 99.8428 42.4221C99.8428 45.5789 102.413 48.1381 105.583 48.1381Z" fill="#E6E6E6"/>
<path d="M90.197 64.5716C93.367 64.5716 95.9369 62.0125 95.9369 58.8556C95.9369 55.6988 93.367 53.1396 90.197 53.1396C87.0269 53.1396 84.457 55.6988 84.457 58.8556C84.457 62.0125 87.0269 64.5716 90.197 64.5716Z" fill="#E6E6E6"/>
<path d="M120.969 64.5716C124.139 64.5716 126.709 62.0125 126.709 58.8556C126.709 55.6988 124.139 53.1396 120.969 53.1396C117.799 53.1396 115.229 55.6988 115.229 58.8556C115.229 62.0125 117.799 64.5716 120.969 64.5716Z" fill="#E6E6E6"/>
<path d="M105.583 64.5712C108.753 64.5712 111.323 62.012 111.323 58.8552C111.323 55.6983 108.753 53.1392 105.583 53.1392C102.413 53.1392 99.8429 55.6983 99.8429 58.8552C99.8429 62.012 102.413 64.5712 105.583 64.5712Z" fill="#E6E6E6"/>
<path d="M90.197 81.0048C93.367 81.0048 95.9369 78.4456 95.9369 75.2888C95.9369 72.1319 93.367 69.5728 90.197 69.5728C87.0269 69.5728 84.457 72.1319 84.457 75.2888C84.457 78.4456 87.0269 81.0048 90.197 81.0048Z" fill="#E6E6E6"/>
<path d="M120.851 97.4105C124.021 97.4105 126.591 94.8514 126.591 91.6945C126.591 88.5377 124.021 85.9785 120.851 85.9785C117.681 85.9785 115.111 88.5377 115.111 91.6945C115.111 94.8514 117.681 97.4105 120.851 97.4105Z" fill="#E6E6E6"/>
<path d="M98.0115 97.41C105.474 97.41 111.524 94.8509 111.524 91.694C111.524 88.5372 105.474 85.978 98.0115 85.978C90.5487 85.978 84.4988 88.5372 84.4988 91.694C84.4988 94.8509 90.5487 97.41 98.0115 97.41Z" fill="#E6E6E6"/>
<path d="M120.969 81.0048C124.139 81.0048 126.709 78.4456 126.709 75.2888C126.709 72.1319 124.139 69.5728 120.969 69.5728C117.799 69.5728 115.229 72.1319 115.229 75.2888C115.229 78.4456 117.799 81.0048 120.969 81.0048Z" fill="#E6E6E6"/>
<path d="M105.583 81.0048C108.753 81.0048 111.323 78.4456 111.323 75.2888C111.323 72.1319 108.753 69.5728 105.583 69.5728C102.413 69.5728 99.8429 72.1319 99.8429 75.2888C99.8429 78.4456 102.413 81.0048 105.583 81.0048Z" fill="#FFDC00"/>
<path d="M106.711 6.66846L51.8148 6.66846C50.1871 6.66846 48.8635 7.98655 48.8635 9.60751V29.6896C48.8635 31.3105 50.1871 32.6286 51.8148 32.6286H106.711C108.339 32.6286 109.662 31.3105 109.662 29.6896V9.60751C109.662 7.98655 108.339 6.66846 106.711 6.66846Z" fill="white"/>
<path d="M106.711 6.66846L51.8148 6.66846C50.1871 6.66846 48.8635 7.98655 48.8635 9.60751V29.6896C48.8635 31.3105 50.1871 32.6286 51.8148 32.6286H106.711C108.339 32.6286 109.662 31.3105 109.662 29.6896V9.60751C109.662 7.98655 108.339 6.66846 106.711 6.66846ZM109.352 29.6896C109.352 31.1405 108.168 32.3196 106.711 32.3196H51.8148C50.3578 32.3196 49.1738 31.1405 49.1738 29.6896V9.60751C49.1738 8.15653 50.3578 6.97751 51.8148 6.97751L106.711 6.97751C108.168 6.97751 109.352 8.15653 109.352 9.60751V29.6896Z" fill="#3F3D56"/>
<path d="M103.658 18.8149H54.8682C54.4059 18.8149 54.0311 19.1881 54.0311 19.6485C54.0311 20.1089 54.4059 20.4821 54.8682 20.4821H103.658C104.12 20.4821 104.495 20.1089 104.495 19.6485C104.495 19.1881 104.12 18.8149 103.658 18.8149Z" fill="#FFDC00"/>
<path d="M16.2517 42.9704L15.7627 45.8701L20.0989 56.3741L22.4254 55.183L20.161 45.3534L19.8355 41.6021L16.2517 42.9704Z" fill="#A0616A"/>
<path d="M21.0378 26.6578C21.0378 26.6578 18.7676 25.5626 17.0059 29.263C15.2442 32.9635 15.4624 41.0795 15.4624 41.0795C15.4624 41.0795 14.8209 41.6878 15.2281 42.1136C15.6353 42.5395 16.0149 43.2153 15.5996 43.9944C15.3806 44.405 14.8739 45.2083 15.7037 45.4365C16.5334 45.6647 20.4147 44.5867 20.4147 44.5867C20.4147 44.5867 21.866 43.9392 21.0414 43.5032C20.2168 43.0671 21.3782 40.4295 21.3782 40.4295L22.3378 32.8102L21.0378 26.6578Z" fill="#FFDC00"/>
<path d="M22.8204 60.3875C23.7317 60.1088 24.0884 58.644 23.6171 57.1156C23.1458 55.5873 22.025 54.5742 21.1137 54.8529C20.2025 55.1315 19.8458 56.5964 20.3171 58.1247C20.7884 59.6531 21.9092 60.6662 22.8204 60.3875Z" fill="#A0616A"/>
<path d="M44.3112 105.405L46.4843 104.824L45.2689 96.2007L42.0616 97.0579L44.3112 105.405Z" fill="#A0616A"/>
<path d="M51.7438 103.366C51.8421 103.462 51.9765 103.818 52.012 103.95C52.1213 104.356 51.8797 104.773 51.4724 104.882L44.7424 106.68C44.4645 106.755 44.1787 106.59 44.1042 106.314L44.029 106.035C44.029 106.035 43.4701 105.285 43.877 104.068C43.877 104.068 44.947 104.65 45.8784 103.042L46.0713 102.265L49.3219 103.518L50.8778 103.3C51.2182 103.252 51.4977 103.127 51.7438 103.366H51.7438Z" fill="#2F2E41"/>
<path d="M23.0103 105.356L25.2603 105.356L26.3306 96.7129L23.0098 96.7131L23.0103 105.356Z" fill="#A0616A"/>
<path d="M30.7187 105.305C30.7887 105.422 30.8257 105.802 30.8257 105.938C30.8257 106.358 30.4838 106.699 30.062 106.699H23.094C22.8062 106.699 22.573 106.466 22.573 106.18V105.891C22.573 105.891 22.2283 105.023 22.938 103.953C22.938 103.953 23.82 104.791 25.138 103.478L25.5267 102.777L28.3401 104.826L29.8995 105.017C30.2407 105.059 30.5432 105.011 30.7187 105.305Z" fill="#2F2E41"/>
<path d="M37.9842 53.8745L43.9007 79.2707L46.757 99.7909L42.2686 100.4L29.8234 65.4552L26.9671 100.4L21.8666 100.807C21.8666 100.807 17.7862 59.3601 19.6223 54.2809L37.9842 53.8745Z" fill="#2F2E41"/>
<path d="M45.0267 23.8438L47.0681 21.7196L49.4124 10.6051L46.816 10.2876L43.1391 19.6844L41.2903 22.9689L45.0267 23.8438Z" fill="#A0616A"/>
<path d="M31.8586 34.6544C31.8586 34.6544 33.7691 38.1624 37.3151 36.0885C40.8612 34.0146 44.6115 25.8493 44.6115 25.8493C44.6115 25.8493 45.3604 23.7736 46.1437 23.3619C46.5566 23.145 47.6189 22.911 47.0616 22.2577C46.5042 21.6044 42.496 20.1763 42.496 20.1763C42.496 20.1763 40.9303 19.8991 41.3661 20.7214C41.8018 21.5437 40.3706 21.0343 40.5151 21.9046C40.6596 22.7748 39.3523 23.0747 39.3523 23.0747L31.8586 34.6544H31.8586Z" fill="#FFDC00"/>
<path d="M50.2198 9.03529C50.693 7.5075 50.338 6.0422 49.4271 5.76246C48.5162 5.48272 47.3942 6.49447 46.9211 8.02226C46.448 9.55005 46.8029 11.0153 47.7138 11.2951C48.6247 11.5748 49.7467 10.5631 50.2198 9.03529Z" fill="#A0616A"/>
<path d="M32.1118 22.5H26.5258L26.2997 24.2539C26.2997 24.2539 19.2549 26.1831 19.431 27.2355C19.6071 28.2878 20.6638 45.8266 20.6638 45.8266L19.7832 54.596C19.7832 54.596 35.6342 61.2608 38.0999 53.3683L36.8671 44.2481C36.8671 44.2481 39.8611 28.6386 39.1567 27.937C38.4522 27.2355 32.6401 24.4293 32.6401 24.4293L32.1118 22.5L32.1118 22.5Z" fill="#FFDC00"/>
<path d="M28.8675 22.522C31.6365 22.522 33.8813 20.2866 33.8813 17.5291C33.8813 14.7715 31.6365 12.5361 28.8675 12.5361C26.0984 12.5361 23.8537 14.7715 23.8537 17.5291C23.8537 20.2866 26.0984 22.522 28.8675 22.522Z" fill="#A0616A"/>
<path d="M32.5807 15.4753C33.2213 15.4214 33.8619 15.3675 34.5025 15.3136C34.2823 15.213 34.053 15.1053 33.9062 14.9133C33.7595 14.7214 33.7292 14.418 33.9064 14.2535C34.1135 14.0613 34.4565 14.1632 34.6828 14.3325C34.5582 13.6845 34.1698 13.0907 33.6249 12.7153C32.9593 12.2568 31.3127 12.8036 30.5102 12.6983C29.5844 12.5768 29.4688 11.7907 28.5429 11.6693C28.194 11.6235 27.8012 11.589 27.5268 11.8085C27.2225 12.052 27.1883 12.5123 26.9198 12.7945C26.5364 13.1974 25.8793 13.0786 25.3336 13.1919C24.5608 13.3525 23.9783 14.0273 23.7092 14.7664C23.4401 15.5056 23.4302 16.3094 23.4234 17.0956C23.4157 17.9766 23.4129 18.9966 24.0528 19.6051C24.4426 19.9758 25.5046 21.2478 25.6194 21.7723C25.7009 22.1448 29.0235 22.5985 29.7437 22.5778L32.1982 21.7723C32.4394 20.7145 32.0404 18.622 31.4669 17.6998C31.6558 17.9482 32.5292 18.6961 32.6627 18.4143C32.7962 18.1325 32.7357 17.2493 32.9019 16.9853C33.1117 16.6521 32.1872 15.5085 32.5807 15.4753V15.4753Z" fill="#2F2E41"/>
</g>
<defs>
<clipPath id="clip0_366_843">
<rect width="135" height="107" fill="white"/>
</clipPath>
</defs>
</svg>
