<svg width="213" height="128" viewBox="0 0 213 128" fill="none" xmlns="http://www.w3.org/2000/svg">
<g clip-path="url(#clip0_366_802)">
<path d="M13.3987 26.8297C10.7487 26.8297 8.15819 26.0429 5.95477 24.5689C3.75136 23.0949 2.03401 20.9997 1.01989 18.5485C0.00577497 16.0972 -0.259565 13.4 0.257428 10.7977C0.774422 8.19552 2.05053 5.80522 3.92438 3.92912C5.79823 2.05302 8.18565 0.775383 10.7848 0.257769C13.3839 -0.259846 16.0779 0.00581247 18.5262 1.02115C20.9745 2.03649 23.0671 3.7559 24.5394 5.96196C26.0116 8.16803 26.7975 10.7616 26.7975 13.4149C26.7934 16.9715 25.3805 20.3812 22.8686 22.8961C20.3567 25.411 16.951 26.8257 13.3987 26.8297ZM13.3987 0.558959C10.8591 0.558959 8.37654 1.31294 6.26494 2.72557C4.15334 4.13819 2.50754 6.14601 1.53568 8.49512C0.563815 10.8442 0.309532 13.4291 0.804984 15.9229C1.30044 18.4167 2.52337 20.7074 4.31914 22.5053C6.11491 24.3033 8.40286 25.5277 10.8937 26.0237C13.3845 26.5198 15.9663 26.2652 18.3125 25.2921C20.6588 24.3191 22.6642 22.6714 24.0752 20.5572C25.4861 18.4431 26.2392 15.9575 26.2392 13.4149C26.2353 10.0064 24.8812 6.73874 22.474 4.32863C20.0668 1.91852 16.803 0.562823 13.3987 0.558959Z" fill="#F2F2F2"/>
<path d="M104.399 19.0042C103.073 19.0042 101.778 18.6108 100.677 17.8738C99.5748 17.1368 98.7161 16.0892 98.2091 14.8636C97.702 13.638 97.5694 12.2893 97.8279 10.9882C98.0863 9.68712 98.7244 8.49197 99.6613 7.55392C100.598 6.61587 101.792 5.97705 103.092 5.71824C104.391 5.45943 105.738 5.59226 106.962 6.09993C108.186 6.6076 109.233 7.46731 109.969 8.57034C110.705 9.67337 111.098 10.9702 111.098 12.2968C111.096 14.0751 110.389 15.78 109.133 17.0374C107.877 18.2949 106.175 19.0022 104.399 19.0042ZM104.399 6.14831C103.184 6.14831 101.997 6.50891 100.987 7.18452C99.9768 7.86012 99.1897 8.82038 98.7249 9.94386C98.2601 11.0674 98.1384 12.3036 98.3754 13.4963C98.6124 14.689 99.1972 15.7845 100.056 16.6444C100.915 17.5043 102.009 18.0899 103.2 18.3271C104.392 18.5644 105.626 18.4426 106.749 17.9772C107.871 17.5119 108.83 16.7238 109.505 15.7127C110.179 14.7016 110.54 13.5128 110.54 12.2968C110.538 10.6667 109.89 9.10385 108.739 7.95119C107.588 6.79853 106.027 6.15015 104.399 6.14831Z" fill="#F2F2F2"/>
<path d="M151.573 51.703C150.082 51.703 148.625 51.2605 147.386 50.4313C146.146 49.6022 145.18 48.4237 144.61 47.0449C144.039 45.666 143.89 44.1488 144.181 42.6851C144.472 41.2213 145.19 39.8768 146.244 38.8215C147.298 37.7662 148.641 37.0475 150.103 36.7563C151.565 36.4652 153.08 36.6146 154.457 37.1857C155.834 37.7569 157.011 38.724 157.84 39.9649C158.668 41.2058 159.11 42.6648 159.11 44.1572C159.107 46.1578 158.313 48.0758 156.9 49.4904C155.487 50.905 153.571 51.7008 151.573 51.703ZM151.573 37.1703C150.193 37.1703 148.843 37.5801 147.696 38.3478C146.548 39.1155 145.654 40.2067 145.126 41.4834C144.597 42.7601 144.459 44.1649 144.729 45.5203C144.998 46.8756 145.662 48.1205 146.638 49.0977C147.614 50.0748 148.858 50.7402 150.211 51.0098C151.565 51.2794 152.968 51.1411 154.243 50.6122C155.519 50.0834 156.609 49.1879 157.375 48.0389C158.142 46.8899 158.551 45.5391 158.551 44.1572C158.549 42.3048 157.813 40.5288 156.505 39.219C155.197 37.9092 153.423 37.1724 151.573 37.1703Z" fill="#F2F2F2"/>
<path d="M212.72 128H149.914C149.84 128 149.769 127.971 149.717 127.918C149.664 127.866 149.635 127.795 149.635 127.721C149.635 127.647 149.664 127.576 149.717 127.523C149.769 127.471 149.84 127.441 149.914 127.441H212.72C212.795 127.441 212.866 127.471 212.918 127.523C212.97 127.576 213 127.647 213 127.721C213 127.795 212.97 127.866 212.918 127.918C212.866 127.971 212.795 128 212.72 128Z" fill="#CCCCCC"/>
<path d="M178.906 42.829C182.692 42.829 185.762 39.7558 185.762 35.9648C185.762 32.1738 182.692 29.1006 178.906 29.1006C175.119 29.1006 172.05 32.1738 172.05 35.9648C172.05 39.7558 175.119 42.829 178.906 42.829Z" fill="#FFB8B8"/>
<path d="M179.618 117.476L176.377 118.577L170.59 106.588L175.372 104.962L179.618 117.476Z" fill="#FFB8B8"/>
<path d="M173.748 118.438L179.998 116.313L181.334 120.252L171.15 123.715C170.974 123.198 170.902 122.651 170.938 122.106C170.974 121.561 171.116 121.028 171.357 120.538C171.599 120.048 171.934 119.61 172.344 119.25C172.754 118.889 173.232 118.614 173.748 118.438Z" fill="#2F2E41"/>
<path d="M186.939 124.248L183.521 124.42L181.232 111.303L186.276 111.049L186.939 124.248Z" fill="#FFB8B8"/>
<path d="M181.03 123.565L187.622 123.233L187.831 127.389L177.089 127.929C177.061 127.384 177.141 126.838 177.325 126.323C177.508 125.809 177.791 125.335 178.157 124.93C178.523 124.525 178.965 124.195 179.458 123.961C179.951 123.727 180.485 123.593 181.03 123.565Z" fill="#2F2E41"/>
<path d="M166.599 80.6654C166.906 80.3922 167.148 80.055 167.311 79.6776C167.473 79.3002 167.551 78.8918 167.538 78.4812C167.526 78.0705 167.423 77.6676 167.239 77.3007C167.054 76.9339 166.791 76.6121 166.468 76.358L169.727 66.9189L164.705 68.2039L162.38 76.9704C161.99 77.5411 161.822 78.2353 161.909 78.9216C161.995 79.6079 162.331 80.2385 162.851 80.6939C163.371 81.1494 164.039 81.398 164.73 81.3927C165.421 81.3875 166.086 81.1287 166.599 80.6654Z" fill="#FFB8B8"/>
<path d="M186.62 120.293C186.575 120.293 186.531 120.291 186.487 120.286L181.848 119.795C181.563 119.766 181.296 119.64 181.093 119.437C180.89 119.235 180.762 118.969 180.732 118.684L177.146 86.6812L174.552 95.4386L179.389 112.65C179.438 112.825 179.449 113.009 179.42 113.189C179.391 113.368 179.324 113.54 179.223 113.691C179.121 113.842 178.989 113.97 178.833 114.064C178.678 114.159 178.504 114.219 178.323 114.24L173.62 114.781C173.321 114.814 173.019 114.739 172.77 114.569C172.521 114.399 172.341 114.146 172.263 113.854L167.124 94.4858C167.082 94.3266 167.071 94.1606 167.093 93.9973L169.403 76.6143L186.63 77.9973L187.875 118.997C187.88 119.166 187.852 119.333 187.791 119.49C187.73 119.647 187.638 119.79 187.521 119.911C187.404 120.032 187.264 120.128 187.109 120.194C186.954 120.26 186.788 120.293 186.62 120.293V120.293Z" fill="#2F2E41"/>
<path d="M180.664 80.9692C174.893 80.9692 168.359 78.7365 167.963 78.5994L167.848 78.5597L174.359 45.1108L174.479 45.1158C177.059 45.2206 184.101 45.2743 184.172 45.2749L184.298 45.2758L187.012 74.7937L187.497 79.1112L187.438 79.1594C185.777 80.5033 183.301 80.9692 180.664 80.9692Z" fill="#FFDC00"/>
<path d="M170.238 78.0788L166.165 76.4365L168.241 51.2993C168.291 50.6796 168.479 50.0791 168.792 49.542C169.105 49.0049 169.534 48.5449 170.048 48.1962L172.191 46.736C172.13 46.5296 172.119 46.3117 172.159 46.1002C172.199 45.8887 172.288 45.6897 172.42 45.5195C172.551 45.3493 172.721 45.2128 172.916 45.1211C173.11 45.0295 173.324 44.9853 173.538 44.9922L174.152 45.0119C174.269 44.9332 174.407 44.8916 174.547 44.8926C174.688 44.8936 174.825 44.9372 174.941 45.0176C175.056 45.098 175.145 45.2115 175.195 45.3432C175.245 45.4749 175.254 45.6186 175.22 45.7555L175.086 48.4187L170.238 78.0788Z" fill="#2F2E41"/>
<path d="M168.182 73.5723L162.865 73.3481L164.588 62.255L166.015 51.8169C166.043 51.4421 166.155 51.0785 166.344 50.7533C166.532 50.428 166.791 50.1496 167.102 49.9387C167.412 49.7278 167.767 49.59 168.138 49.5356C168.51 49.4811 168.889 49.5115 169.247 49.6243C169.805 49.7995 170.283 50.1657 170.598 50.6586C170.913 51.1516 171.045 51.7399 170.97 52.3204L169.524 63.63L168.182 73.5723Z" fill="#2F2E41"/>
<path d="M176.602 78.4632L176.566 78.3511C176.541 78.2744 174.145 70.5785 178.154 61.3948L180.165 51.3824L181.883 45.0956C181.916 44.9832 181.974 44.8799 182.053 44.7939C182.132 44.7079 182.23 44.6415 182.339 44.6001C182.467 44.5556 182.606 44.55 182.737 44.5838C182.868 44.6176 182.987 44.6894 183.078 44.7903C184.276 44.4383 185.563 44.5672 186.668 45.1496L189.081 46.4223C189.617 46.7053 190.045 47.1586 190.297 47.711C190.548 48.2635 190.61 48.8839 190.471 49.4751L187.173 63.567L188.776 76.7296L176.602 78.4632Z" fill="#2F2E41"/>
<path d="M180.114 73.0375C180.522 73.0819 180.935 73.0361 181.323 72.9035C181.711 72.7709 182.066 72.5546 182.362 72.27C182.658 71.9853 182.888 71.6391 183.035 71.2558C183.183 70.8725 183.245 70.4615 183.217 70.0516L190.686 64.5122L188.075 63.2729L180.022 67.4265C179.337 67.5193 178.71 67.8604 178.26 68.385C177.81 68.9096 177.567 69.5814 177.579 70.273C177.59 70.9646 177.854 71.6281 178.322 72.1376C178.789 72.6471 179.427 72.9673 180.114 73.0375V73.0375Z" fill="#FFB8B8"/>
<path d="M184.796 70.5581L182.273 65.8436L188.495 61.7443L185.459 50.842C185.337 50.4055 185.307 49.9486 185.369 49.4998C185.432 49.051 185.587 48.6199 185.823 48.2336C186.06 47.8472 186.373 47.5139 186.744 47.2543C187.115 46.9947 187.536 46.8145 187.979 46.7249C188.763 46.5684 189.578 46.7022 190.271 47.1012C190.964 47.5003 191.488 48.1376 191.748 48.8948L195.844 60.9501C195.929 61.1985 195.933 61.4671 195.858 61.7183C195.782 61.9695 195.63 62.1908 195.422 62.351L184.796 70.5581Z" fill="#2F2E41"/>
<path d="M179.391 37.4206C178.569 37.5277 177.949 36.6858 177.661 35.9075C177.374 35.1293 177.155 34.2232 176.44 33.8029C175.464 33.2285 174.215 33.9193 173.098 33.7298C171.838 33.5158 171.018 32.1781 170.954 30.8994C170.89 29.6208 171.398 28.391 171.896 27.2121L172.07 28.6772C172.047 28.1807 172.152 27.6864 172.374 27.2418C172.596 26.7972 172.928 26.417 173.339 26.1377L173.114 28.2875C173.162 27.9909 173.268 27.7067 173.425 27.4511C173.583 27.1955 173.79 26.9737 174.033 26.7983C174.277 26.6228 174.553 26.4973 174.845 26.4289C175.137 26.3604 175.44 26.3504 175.736 26.3995L175.701 27.6804C177.157 27.507 178.626 27.3334 180.086 27.4655C181.547 27.5976 183.017 28.0602 184.124 29.0232C185.78 30.4637 186.385 32.8355 186.182 35.0222C185.979 37.209 185.077 39.2632 184.137 41.2476C183.901 41.7469 183.574 42.3103 183.026 42.3739C182.533 42.4311 182.082 42.0188 181.929 41.5466C181.811 41.0621 181.816 40.5558 181.943 40.0735C182.081 39.3364 182.256 38.583 182.125 37.8445C181.995 37.1059 181.465 36.3761 180.721 36.2855C179.977 36.195 179.216 37.046 179.574 37.7051L179.391 37.4206Z" fill="#2F2E41"/>
<path d="M89.6902 112.79L87.0214 111.665L85.1906 98.2705H60.8105L58.8261 111.611L56.4384 112.806C56.3242 112.863 56.2326 112.957 56.1784 113.073C56.1243 113.189 56.1108 113.319 56.1402 113.444C56.1695 113.568 56.24 113.679 56.3401 113.759C56.4403 113.838 56.5643 113.881 56.692 113.881H89.4702C89.6011 113.881 89.728 113.836 89.8293 113.753C89.9306 113.67 90.0001 113.554 90.026 113.426C90.0519 113.297 90.0326 113.164 89.9714 113.048C89.9102 112.932 89.8108 112.841 89.6902 112.79Z" fill="#E6E6E6"/>
<path d="M133.016 100.052H13.2539C12.6255 100.051 12.0234 99.8001 11.5796 99.3547C11.1357 98.9094 10.8865 98.306 10.8865 97.6769V80.7686H135.383V97.6769C135.383 98.306 135.134 98.9094 134.69 99.3547C134.246 99.8001 133.644 100.051 133.016 100.052Z" fill="#CCCCCC"/>
<path d="M135.508 88.76H10.7772V16.413C10.778 15.6537 11.0797 14.9259 11.6159 14.389C12.1522 13.8521 12.8792 13.5502 13.6375 13.5493H132.648C133.406 13.5502 134.133 13.8522 134.67 14.389C135.206 14.9259 135.507 15.6537 135.508 16.413V88.76Z" fill="#3F3D56"/>
<path d="M128.058 83.5087H18.2266C17.642 83.5081 17.0815 83.2753 16.6681 82.8614C16.2547 82.4475 16.0221 81.8864 16.0215 81.301V21.0076C16.0221 20.4223 16.2547 19.8611 16.6681 19.4472C17.0815 19.0333 17.642 18.8005 18.2266 18.7998H128.058C128.643 18.8005 129.203 19.0333 129.617 19.4472C130.03 19.8611 130.263 20.4223 130.263 21.0076V81.301C130.263 81.8864 130.03 82.4475 129.617 82.8614C129.203 83.2753 128.643 83.5081 128.058 83.5087Z" fill="white"/>
<path d="M127.025 114.021H20.6727C20.5987 114.021 20.5277 113.991 20.4753 113.939C20.423 113.887 20.3936 113.816 20.3936 113.741C20.3936 113.667 20.423 113.596 20.4753 113.544C20.5277 113.491 20.5987 113.462 20.6727 113.462H127.025C127.099 113.462 127.17 113.491 127.223 113.544C127.275 113.596 127.304 113.667 127.304 113.741C127.304 113.816 127.275 113.887 127.223 113.939C127.17 113.991 127.099 114.021 127.025 114.021Z" fill="#CCCCCC"/>
<path d="M117.74 76.0174H28.5448C28.4707 76.0174 28.3997 75.9879 28.3474 75.9355C28.295 75.8831 28.2656 75.812 28.2656 75.7379V32.9352C28.2656 32.8611 28.295 32.79 28.3474 32.7376C28.3997 32.6852 28.4707 32.6558 28.5448 32.6558C28.6188 32.6558 28.6898 32.6852 28.7421 32.7376C28.7945 32.79 28.8239 32.8611 28.8239 32.9352V75.4584H117.74C117.814 75.4584 117.885 75.4879 117.937 75.5403C117.99 75.5927 118.019 75.6638 118.019 75.7379C118.019 75.812 117.99 75.8831 117.937 75.9355C117.885 75.9879 117.814 76.0174 117.74 76.0174Z" fill="#3F3D56"/>
<path d="M47.6022 72.9433H39.4896C39.2699 72.9431 39.0593 72.8556 38.9039 72.7001C38.7486 72.5445 38.6612 72.3337 38.6609 72.1137V60.917C38.6612 60.697 38.7486 60.4862 38.9039 60.3306C39.0593 60.1751 39.2699 60.0876 39.4896 60.0874H47.6022C47.8219 60.0876 48.0325 60.1751 48.1878 60.3306C48.3432 60.4862 48.4306 60.697 48.4308 60.917V72.1137C48.4306 72.3337 48.3432 72.5445 48.1878 72.7001C48.0325 72.8556 47.8219 72.9431 47.6022 72.9433Z" fill="#FFDC00"/>
<path d="M62.3964 72.9433H54.2837C54.064 72.943 53.8534 72.8555 53.6981 72.7C53.5427 72.5445 53.4553 72.3337 53.4551 72.1137V50.2968C53.4553 50.0769 53.5427 49.866 53.6981 49.7105C53.8534 49.555 54.064 49.4675 54.2837 49.4673H62.3964C62.616 49.4675 62.8267 49.555 62.982 49.7105C63.1373 49.866 63.2247 50.0769 63.225 50.2968V72.1137C63.2247 72.3337 63.1373 72.5445 62.982 72.7C62.8267 72.8555 62.616 72.943 62.3964 72.9433Z" fill="#FFDC00"/>
<path d="M77.1911 72.9433H69.0784C68.8588 72.9431 68.6482 72.8556 68.4928 72.7001C68.3375 72.5445 68.2501 72.3337 68.2498 72.1137V60.917C68.2501 60.697 68.3375 60.4862 68.4928 60.3306C68.6482 60.1751 68.8588 60.0876 69.0784 60.0874H77.1911C77.4108 60.0876 77.6214 60.1751 77.7767 60.3306C77.9321 60.4862 78.0195 60.697 78.0197 60.917V72.1137C78.0195 72.3337 77.9321 72.5445 77.7767 72.7001C77.6214 72.8556 77.4108 72.9431 77.1911 72.9433Z" fill="#FFDC00"/>
<path d="M91.9852 72.9432H83.8726C83.6579 72.9478 83.4501 72.8671 83.2948 72.7186C83.1395 72.5702 83.0493 72.3661 83.0439 72.1512V46.0671C83.0493 45.8522 83.1395 45.6481 83.2948 45.4997C83.4501 45.3512 83.6579 45.2705 83.8726 45.2751H91.9852C92.1999 45.2705 92.4077 45.3512 92.563 45.4997C92.7183 45.6481 92.8085 45.8522 92.8139 46.0671V72.1512C92.8085 72.3661 92.7183 72.5702 92.563 72.7186C92.4077 72.8671 92.1999 72.9478 91.9852 72.9432Z" fill="#FFDC00"/>
<path d="M106.78 72.9435H98.6673C98.4476 72.9432 98.237 72.8557 98.0817 72.7002C97.9263 72.5447 97.839 72.3339 97.8387 72.1139V38.5591C97.839 38.3391 97.9263 38.1282 98.0817 37.9727C98.237 37.8172 98.4476 37.7297 98.6673 37.7295H106.78C107 37.7297 107.21 37.8172 107.366 37.9727C107.521 38.1282 107.608 38.3391 107.609 38.5591V72.1139C107.608 72.3339 107.521 72.5447 107.366 72.7002C107.21 72.8557 107 72.9432 106.78 72.9435Z" fill="#FFDC00"/>
<path d="M43.5459 56.7336C44.4709 56.7336 45.2207 55.9828 45.2207 55.0567C45.2207 54.1306 44.4709 53.3799 43.5459 53.3799C42.6209 53.3799 41.8711 54.1306 41.8711 55.0567C41.8711 55.9828 42.6209 56.7336 43.5459 56.7336Z" fill="#3F3D56"/>
<path d="M58.3399 45.8342C59.2649 45.8342 60.0147 45.0834 60.0147 44.1573C60.0147 43.2312 59.2649 42.4805 58.3399 42.4805C57.4149 42.4805 56.665 43.2312 56.665 44.1573C56.665 45.0834 57.4149 45.8342 58.3399 45.8342Z" fill="#3F3D56"/>
<path d="M73.1348 56.7336C74.0598 56.7336 74.8096 55.9828 74.8096 55.0567C74.8096 54.1306 74.0598 53.3799 73.1348 53.3799C72.2098 53.3799 71.4599 54.1306 71.4599 55.0567C71.4599 55.9828 72.2098 56.7336 73.1348 56.7336Z" fill="#3F3D56"/>
<path d="M87.9287 40.5241C88.8537 40.5241 89.6036 39.7734 89.6036 38.8473C89.6036 37.9212 88.8537 37.1704 87.9287 37.1704C87.0038 37.1704 86.2539 37.9212 86.2539 38.8473C86.2539 39.7734 87.0038 40.5241 87.9287 40.5241Z" fill="#3F3D56"/>
<path d="M102.724 34.3757C103.649 34.3757 104.399 33.6249 104.399 32.6988C104.399 31.7727 103.649 31.022 102.724 31.022C101.799 31.022 101.049 31.7727 101.049 32.6988C101.049 33.6249 101.799 34.3757 102.724 34.3757Z" fill="#3F3D56"/>
<path d="M73.1695 55.4326L58.3399 44.3117L43.7129 55.2806L43.3779 54.8334L58.3399 43.6133L73.0991 54.6814L87.7654 38.6121L87.8243 38.588L102.619 32.6201L102.828 33.1385L88.092 39.0827L73.1695 55.4326Z" fill="#3F3D56"/>
</g>
<defs>
<clipPath id="clip0_366_802">
<rect width="213" height="128" rx="12" fill="white"/>
</clipPath>
</defs>
</svg>
